<svg width="70" height="60" viewBox="0 0 70 60" fill="none" xmlns="http://www.w3.org/2000/svg">
<rect x="0.5" y="0.5" width="69" height="59" rx="7.5" fill="white" stroke="#35C2C1"/>
<path d="M34.6211 38.286C33.6897 38.286 32.8501 38.066 32.1021 37.626C31.3541 37.186 30.7601 36.5957 30.3201 35.855C29.8801 35.107 29.6601 34.2783 29.6601 33.369H32.3441C32.3441 33.7797 32.4394 34.1537 32.6301 34.491C32.8281 34.8283 33.0994 35.0997 33.4441 35.305C33.7887 35.503 34.1811 35.602 34.6211 35.602C35.0244 35.602 35.3984 35.503 35.7431 35.305C36.0951 35.0997 36.3774 34.8283 36.5901 34.491C36.8027 34.1537 36.9091 33.7797 36.9091 33.369C36.9091 32.8337 36.7661 32.39 36.4801 32.038C36.1941 31.6787 35.7944 31.411 35.2811 31.235C34.7751 31.059 34.1847 30.971 33.5101 30.971V28.903C34.4194 28.903 35.1381 28.7307 35.6661 28.386C36.2014 28.0413 36.4691 27.5353 36.4691 26.868C36.4691 26.5233 36.3811 26.208 36.2051 25.922C36.0291 25.636 35.7944 25.4087 35.5011 25.24C35.2151 25.064 34.8997 24.976 34.5551 24.976C34.2031 24.976 33.8621 25.064 33.5321 25.24C33.2021 25.4087 32.9307 25.636 32.7181 25.922C32.5127 26.208 32.4101 26.5233 32.4101 26.868H29.7261C29.7261 26.2373 29.8544 25.647 30.1111 25.097C30.3677 24.5397 30.7197 24.052 31.1671 23.634C31.6217 23.216 32.1351 22.8897 32.7071 22.655C33.2864 22.413 33.8914 22.292 34.5221 22.292C35.3507 22.292 36.1171 22.4973 36.8211 22.908C37.5251 23.3187 38.0897 23.8687 38.5151 24.558C38.9404 25.2473 39.1531 26.0173 39.1531 26.868C39.1531 27.462 39.0137 28.045 38.7351 28.617C38.4564 29.189 38.0604 29.5923 37.5471 29.827C37.9944 29.9883 38.3684 30.2597 38.6691 30.641C38.9697 31.015 39.1971 31.444 39.3511 31.928C39.5124 32.4047 39.5931 32.885 39.5931 33.369C39.5931 34.271 39.3657 35.096 38.9111 35.844C38.4564 36.5847 37.8514 37.1787 37.0961 37.626C36.3481 38.066 35.5231 38.286 34.6211 38.286Z" fill="#1E232C"/>
</svg>
