<svg width="70" height="60" viewBox="0 0 70 60" fill="none" xmlns="http://www.w3.org/2000/svg">
<rect x="0.6" y="0.6" width="68.8" height="58.8" rx="7.4" fill="white" stroke="#35C2C1" stroke-width="1.2"/>
<path d="M35.0501 38.286C34.0601 38.286 33.1654 38.0477 32.3661 37.571C31.5667 37.087 30.9324 36.4453 30.4631 35.646C30.0011 34.8467 29.7701 33.9703 29.7701 33.017H32.4541C32.4541 33.4937 32.5714 33.93 32.8061 34.326C33.0407 34.7147 33.3524 35.0263 33.7411 35.261C34.1371 35.4883 34.5734 35.602 35.0501 35.602C35.5267 35.602 35.9594 35.4883 36.3481 35.261C36.7367 35.0263 37.0484 34.7147 37.2831 34.326C37.5177 33.93 37.6351 33.4937 37.6351 33.017C37.6351 32.5403 37.5324 32.104 37.3271 31.708C37.1291 31.3047 36.8027 30.9857 36.3481 30.751C35.9007 30.509 35.3067 30.388 34.5661 30.388H30.6061L32.2341 22.6H39.8021V25.284H34.4121L33.9171 27.704L35.0061 27.715C36.0474 27.7517 36.9677 28.0047 37.7671 28.474C38.5664 28.9433 39.1897 29.574 39.6371 30.366C40.0917 31.1507 40.3191 32.0343 40.3191 33.017C40.3191 33.7357 40.1834 34.414 39.9121 35.052C39.6407 35.69 39.2631 36.251 38.7791 36.735C38.2951 37.219 37.7341 37.6003 37.0961 37.879C36.4654 38.1503 35.7834 38.286 35.0501 38.286Z" fill="#1E232C"/>
</svg>
