<svg width="100" height="56" viewBox="0 0 100 56" fill="none" xmlns="http://www.w3.org/2000/svg">
<rect x="0.5" y="0.5" width="99" height="55" rx="7.5" fill="white" stroke="#E8ECF4"/>
<g clip-path="url(#clip0_161_170)">
<path d="M42.5412 40.5133C42.053 40.1722 41.6204 39.7508 41.2598 39.2653C40.8632 38.7641 40.4958 38.2383 40.1595 37.6906C39.3702 36.4766 38.7513 35.1498 38.3217 33.7508C37.8055 32.1258 37.5556 30.5683 37.5556 29.0448C37.5556 27.3435 37.9061 25.8582 38.5917 24.6102C39.0999 23.6348 39.8472 22.8196 40.7561 22.2491C41.6369 21.6746 42.649 21.3602 43.6857 21.3391C44.0486 21.3391 44.4394 21.3943 44.8542 21.5C45.1521 21.5885 45.515 21.7283 45.9584 21.9021C46.5225 22.1305 46.8328 22.2702 46.938 22.3043C47.2685 22.4311 47.5462 22.4863 47.7645 22.4863C47.9301 22.4863 48.1637 22.4311 48.4292 22.3466C48.5785 22.2913 48.8602 22.1938 49.2633 22.0126C49.6626 21.8599 49.9768 21.7291 50.2267 21.6316C50.6098 21.513 50.9804 21.4033 51.3108 21.348C51.7025 21.2832 52.1001 21.266 52.4955 21.2968C53.1808 21.3439 53.8558 21.4963 54.4989 21.7494C55.5505 22.1938 56.4009 22.8877 57.0339 23.8741C56.7664 24.0472 56.5153 24.2469 56.2841 24.4705C55.7808 24.9389 55.3521 25.4889 55.0143 26.0995C54.5727 26.934 54.3437 27.8741 54.3496 28.8287C54.3658 30.0011 54.6521 31.0338 55.2162 31.9268C55.631 32.5886 56.17 33.1545 56.8002 33.59C57.1229 33.8183 57.4007 33.9751 57.6669 34.0807C57.5423 34.487 57.4092 34.8802 57.2521 35.2702C56.8959 36.1448 56.4641 36.9833 55.9622 37.7751C55.5149 38.4568 55.1644 38.9646 54.8982 39.3026C54.4834 39.8186 54.0842 40.2126 53.681 40.4873C53.2376 40.796 52.7137 40.961 52.1814 40.961C51.8208 40.9755 51.4604 40.9297 51.1135 40.8253C50.8156 40.7196 50.5208 40.6051 50.2306 40.4743C49.9289 40.3288 49.6178 40.2058 49.2997 40.1062C48.5133 39.8941 47.6887 39.8927 46.9017 40.1021C46.579 40.1996 46.2687 40.3134 45.9623 40.4531C45.5312 40.6433 45.2449 40.7708 45.0793 40.8253C44.7489 40.9268 44.4061 40.9902 44.0595 41.0113C43.5232 41.0113 43.0233 40.8505 42.5281 40.5246L42.5412 40.5133ZM49.6139 20.5136C48.9128 20.8816 48.2435 21.0385 47.5787 20.9873C47.4743 20.2845 47.5787 19.5654 47.8565 18.7781C48.093 18.1111 48.4425 17.4945 48.888 16.9581C49.3585 16.3934 49.9294 15.9306 50.5687 15.5955C51.2497 15.2275 51.8989 15.0284 52.5195 14.9991C52.6 15.7353 52.5195 16.4592 52.2618 17.2416C52.0234 17.9333 51.6746 18.5773 51.2304 19.1461C50.7769 19.7116 50.2205 20.1762 49.5937 20.5128L49.6139 20.5136Z" fill="black"/>
</g>
<defs>
<clipPath id="clip0_161_170">
<rect width="24.7619" height="26" fill="white" transform="translate(35.238 15)"/>
</clipPath>
</defs>
</svg>
