<svg width="100" height="56" viewBox="0 0 100 56" fill="none" xmlns="http://www.w3.org/2000/svg">
<rect x="0.5" y="0.5" width="99" height="55" rx="7.5" fill="white" stroke="#E8ECF4"/>
<path d="M41.3525 30.4656L40.5689 33.537L37.705 33.6006C36.8491 31.9338 36.3636 30.0266 36.3636 28C36.3636 26.0403 36.8175 24.1922 37.6221 22.5649H37.6227L40.1724 23.0558L41.2893 25.7169C41.0555 26.4325 40.9281 27.2007 40.9281 28C40.9282 28.8675 41.0779 29.6987 41.3525 30.4656Z" fill="#FBBB00"/>
<path d="M58.6777 25.7921C58.807 26.507 58.8744 27.2453 58.8744 27.9999C58.8744 28.846 58.7897 29.6713 58.6283 30.4675C58.0804 33.1765 56.6487 35.5421 54.6654 37.2161L54.6648 37.2155L51.4533 37.0434L50.9988 34.0642C52.3148 33.2538 53.3433 31.9856 53.885 30.4675H47.8664V25.7921H53.9728H58.6777Z" fill="#518EF8"/>
<path d="M54.6648 37.2156L54.6654 37.2162C52.7365 38.8441 50.2863 39.8181 47.619 39.8181C43.3327 39.8181 39.606 37.3026 37.705 33.6006L41.3525 30.4656C42.303 33.1292 44.7501 35.0253 47.619 35.0253C48.8521 35.0253 50.0074 34.6753 50.9987 34.0643L54.6648 37.2156Z" fill="#28B446"/>
<path d="M54.8033 18.9025L51.1571 22.0369C50.1311 21.3636 48.9183 20.9746 47.619 20.9746C44.6852 20.9746 42.1923 22.9577 41.2894 25.7168L37.6227 22.5649H37.6221C39.4954 18.7727 43.269 16.1818 47.619 16.1818C50.35 16.1818 52.854 17.2032 54.8033 18.9025Z" fill="#F14336"/>
</svg>
